<svg xmlns="http://www.w3.org/2000/svg" width="1280" height="1030" viewBox="0 0 1280 1030" role="img" aria-labelledby="title desc"><title id="title">Story Lane / six further logo options</title><desc id="desc">Six SVG logo variations based on connected film frames and dialogue within a viewfinder.</desc><rect width="1280" height="1030" fill="#101a16"/><text x="30" y="40" fill="#f2f0e5" font-family="Arial, sans-serif" font-size="22" font-weight="600">STORY LANE / ROUND TWO</text><text x="30" y="65" fill="#a7b6ad" font-family="Arial, sans-serif" font-size="13">Connected scenes. Character exchanges. Six refinements of your two favorite directions.</text><g transform="translate(30 102)"><text y="0" fill="#f2f0e5" font-family="Arial, sans-serif" font-size="16" font-weight="600">05 / Scene Loop</text><text x="590" y="0" text-anchor="end" fill="#9bada4" font-family="Arial, sans-serif" font-size="10">From 01 · connected frames</text><rect y="18" width="590" height="251" rx="17" fill="#172622" stroke="#35483e"/><g transform="translate(19 56) scale(1.05)"><path d="M68 30h16c33 0 33 53 0 53H59" fill="none" stroke="#e8b872" stroke-width="8" stroke-linecap="round"/><rect x="10" y="15" width="62" height="36" rx="6" fill="#e8b872"/><rect x="18" y="23" width="46" height="20" rx="1" fill="#172622"/><rect x="10" y="73" width="68" height="39" rx="6" fill="#e8b872"/><rect x="18" y="81" width="52" height="23" rx="1" fill="#172622"/><path d="M35 28h17M27 36h25M29 88h23M26 96h35" fill="none" stroke="#f2f0e5" stroke-width="3" stroke-linecap="square"/></g><text x="180" y="119" fill="#f2f0e5" font-family="Arial, sans-serif" font-size="46" font-weight="650" letter-spacing="-2">Story Lane</text><text x="183" y="146" fill="#e8b872" font-family="Arial, sans-serif" font-size="9" letter-spacing="1.35">STORIES MADE FOR THE SCREEN</text><path d="M22 217h546" stroke="#35483e"/><g transform="translate(24 230) scale(.1875)"><path d="M68 30h16c33 0 33 53 0 53H59" fill="none" stroke="#e8b872" stroke-width="8" stroke-linecap="round"/><rect x="10" y="15" width="62" height="36" rx="6" fill="#e8b872"/><rect x="18" y="23" width="46" height="20" rx="1" fill="#172622"/><rect x="10" y="73" width="68" height="39" rx="6" fill="#e8b872"/><rect x="18" y="81" width="52" height="23" rx="1" fill="#172622"/><path d="M35 28h17M27 36h25M29 88h23M26 96h35" fill="none" stroke="#f2f0e5" stroke-width="3" stroke-linecap="square"/></g><g transform="translate(68 225) scale(.25)"><path d="M68 30h16c33 0 33 53 0 53H59" fill="none" stroke="#e8b872" stroke-width="8" stroke-linecap="round"/><rect x="10" y="15" width="62" height="36" rx="6" fill="#e8b872"/><rect x="18" y="23" width="46" height="20" rx="1" fill="#172622"/><rect x="10" y="73" width="68" height="39" rx="6" fill="#e8b872"/><rect x="18" y="81" width="52" height="23" rx="1" fill="#172622"/><path d="M35 28h17M27 36h25M29 88h23M26 96h35" fill="none" stroke="#f2f0e5" stroke-width="3" stroke-linecap="square"/></g><g transform="translate(119 221) scale(.3125)"><path d="M68 30h16c33 0 33 53 0 53H59" fill="none" stroke="#e8b872" stroke-width="8" stroke-linecap="round"/><rect x="10" y="15" width="62" height="36" rx="6" fill="#e8b872"/><rect x="18" y="23" width="46" height="20" rx="1" fill="#172622"/><rect x="10" y="73" width="68" height="39" rx="6" fill="#e8b872"/><rect x="18" y="81" width="52" height="23" rx="1" fill="#172622"/><path d="M35 28h17M27 36h25M29 88h23M26 96h35" fill="none" stroke="#f2f0e5" stroke-width="3" stroke-linecap="square"/></g><text x="175" y="245" fill="#a7b6ad" font-family="Arial, sans-serif" font-size="11">24 / 32 / 40 px</text><g transform="translate(522 221) scale(.3125)"><path d="M68 30h16c33 0 33 53 0 53H59" fill="none" stroke="#f2f0e5" stroke-width="8" stroke-linecap="round"/><rect x="10" y="15" width="62" height="36" rx="6" fill="#f2f0e5"/><rect x="18" y="23" width="46" height="20" rx="1" fill="#172622"/><rect x="10" y="73" width="68" height="39" rx="6" fill="#f2f0e5"/><rect x="18" y="81" width="52" height="23" rx="1" fill="#172622"/><path d="M35 28h17M27 36h25M29 88h23M26 96h35" fill="none" stroke="#f2f0e5" stroke-width="3" stroke-linecap="square"/></g></g><g transform="translate(650 102)"><text y="0" fill="#f2f0e5" font-family="Arial, sans-serif" font-size="16" font-weight="600">06 / Continuous Cut</text><text x="590" y="0" text-anchor="end" fill="#9bada4" font-family="Arial, sans-serif" font-size="10">From 01 · a cinematic S</text><rect y="18" width="590" height="251" rx="17" fill="#172622" stroke="#35483e"/><g transform="translate(19 56) scale(1.05)"><path d="M104 20H38c-15 0-23 9-23 22s8 22 23 22h52c15 0 23 9 23 22s-8 22-23 22H24" fill="none" stroke="#e8b872" stroke-width="12" stroke-linecap="square"/><path d="M39 32v20m16-20v20m18 44V76m16 20V76" fill="none" stroke="#e8b872" stroke-width="4"/><path d="M94 33h11v10M23 85H12V75" fill="none" stroke="#f2f0e5" stroke-width="4"/></g><text x="180" y="119" fill="#f2f0e5" font-family="Arial, sans-serif" font-size="46" font-weight="650" letter-spacing="-2">Story Lane</text><text x="183" y="146" fill="#e8b872" font-family="Arial, sans-serif" font-size="9" letter-spacing="1.35">STORIES MADE FOR THE SCREEN</text><path d="M22 217h546" stroke="#35483e"/><g transform="translate(24 230) scale(.1875)"><path d="M104 20H38c-15 0-23 9-23 22s8 22 23 22h52c15 0 23 9 23 22s-8 22-23 22H24" fill="none" stroke="#e8b872" stroke-width="12" stroke-linecap="square"/><path d="M39 32v20m16-20v20m18 44V76m16 20V76" fill="none" stroke="#e8b872" stroke-width="4"/><path d="M94 33h11v10M23 85H12V75" fill="none" stroke="#f2f0e5" stroke-width="4"/></g><g transform="translate(68 225) scale(.25)"><path d="M104 20H38c-15 0-23 9-23 22s8 22 23 22h52c15 0 23 9 23 22s-8 22-23 22H24" fill="none" stroke="#e8b872" stroke-width="12" stroke-linecap="square"/><path d="M39 32v20m16-20v20m18 44V76m16 20V76" fill="none" stroke="#e8b872" stroke-width="4"/><path d="M94 33h11v10M23 85H12V75" fill="none" stroke="#f2f0e5" stroke-width="4"/></g><g transform="translate(119 221) scale(.3125)"><path d="M104 20H38c-15 0-23 9-23 22s8 22 23 22h52c15 0 23 9 23 22s-8 22-23 22H24" fill="none" stroke="#e8b872" stroke-width="12" stroke-linecap="square"/><path d="M39 32v20m16-20v20m18 44V76m16 20V76" fill="none" stroke="#e8b872" stroke-width="4"/><path d="M94 33h11v10M23 85H12V75" fill="none" stroke="#f2f0e5" stroke-width="4"/></g><text x="175" y="245" fill="#a7b6ad" font-family="Arial, sans-serif" font-size="11">24 / 32 / 40 px</text><g transform="translate(522 221) scale(.3125)"><path d="M104 20H38c-15 0-23 9-23 22s8 22 23 22h52c15 0 23 9 23 22s-8 22-23 22H24" fill="none" stroke="#f2f0e5" stroke-width="12" stroke-linecap="square"/><path d="M39 32v20m16-20v20m18 44V76m16 20V76" fill="none" stroke="#f2f0e5" stroke-width="4"/><path d="M94 33h11v10M23 85H12V75" fill="none" stroke="#f2f0e5" stroke-width="4"/></g></g><g transform="translate(30 412)"><text y="0" fill="#f2f0e5" font-family="Arial, sans-serif" font-size="16" font-weight="600">07 / Shot / Reverse Shot</text><text x="590" y="0" text-anchor="end" fill="#9bada4" font-family="Arial, sans-serif" font-size="10">From 04 · characters in conversation</text><rect y="18" width="590" height="251" rx="17" fill="#172622" stroke="#35483e"/><g transform="translate(19 56) scale(1.05)"><path d="M29 15H12v18m87-18h17v18M12 96v17h17m70 0h17V96" fill="none" stroke="#8ddaaf" stroke-width="5"/><path d="M23 29h70v29H49L36 71V58H23Z" fill="#f2f0e5"/><path d="M105 76H49v27h28l13 12v-12h15Z" fill="#8ddaaf"/><path d="M46 38h25M34 47h47M67 85h20M60 94h34" stroke="#172622" stroke-width="3"/></g><text x="180" y="119" fill="#f2f0e5" font-family="Arial, sans-serif" font-size="46" font-weight="650" letter-spacing="-2">Story Lane</text><text x="183" y="146" fill="#8ddaaf" font-family="Arial, sans-serif" font-size="9" letter-spacing="1.35">STORIES MADE FOR THE SCREEN</text><path d="M22 217h546" stroke="#35483e"/><g transform="translate(24 230) scale(.1875)"><path d="M29 15H12v18m87-18h17v18M12 96v17h17m70 0h17V96" fill="none" stroke="#8ddaaf" stroke-width="5"/><path d="M23 29h70v29H49L36 71V58H23Z" fill="#f2f0e5"/><path d="M105 76H49v27h28l13 12v-12h15Z" fill="#8ddaaf"/><path d="M46 38h25M34 47h47M67 85h20M60 94h34" stroke="#172622" stroke-width="3"/></g><g transform="translate(68 225) scale(.25)"><path d="M29 15H12v18m87-18h17v18M12 96v17h17m70 0h17V96" fill="none" stroke="#8ddaaf" stroke-width="5"/><path d="M23 29h70v29H49L36 71V58H23Z" fill="#f2f0e5"/><path d="M105 76H49v27h28l13 12v-12h15Z" fill="#8ddaaf"/><path d="M46 38h25M34 47h47M67 85h20M60 94h34" stroke="#172622" stroke-width="3"/></g><g transform="translate(119 221) scale(.3125)"><path d="M29 15H12v18m87-18h17v18M12 96v17h17m70 0h17V96" fill="none" stroke="#8ddaaf" stroke-width="5"/><path d="M23 29h70v29H49L36 71V58H23Z" fill="#f2f0e5"/><path d="M105 76H49v27h28l13 12v-12h15Z" fill="#8ddaaf"/><path d="M46 38h25M34 47h47M67 85h20M60 94h34" stroke="#172622" stroke-width="3"/></g><text x="175" y="245" fill="#a7b6ad" font-family="Arial, sans-serif" font-size="11">24 / 32 / 40 px</text><g transform="translate(522 221) scale(.3125)"><path d="M29 15H12v18m87-18h17v18M12 96v17h17m70 0h17V96" fill="none" stroke="#f2f0e5" stroke-width="5"/><path d="M23 29h70v29H49L36 71V58H23Z" fill="#f2f0e5"/><path d="M105 76H49v27h28l13 12v-12h15Z" fill="#f2f0e5"/><path d="M46 38h25M34 47h47M67 85h20M60 94h34" stroke="#172622" stroke-width="3"/></g></g><g transform="translate(650 412)"><text y="0" fill="#f2f0e5" font-family="Arial, sans-serif" font-size="16" font-weight="600">08 / Cue Frame</text><text x="590" y="0" text-anchor="end" fill="#9bada4" font-family="Arial, sans-serif" font-size="10">From 04 · minimal and editorial</text><rect y="18" width="590" height="251" rx="17" fill="#172622" stroke="#35483e"/><g transform="translate(19 56) scale(1.05)"><path d="M39 23H13v26m76-26h26v26M13 79v26h26m50 0h26V79" fill="none" stroke="#8ddaaf" stroke-width="6"/><path d="M29 42h29v28L44 86H31l13-17H29ZM70 42h29v28L85 86H72l13-17H70Z" fill="#f2f0e5"/><path d="M45 98h38" stroke="#8ddaaf" stroke-width="3"/></g><text x="180" y="119" fill="#f2f0e5" font-family="Arial, sans-serif" font-size="46" font-weight="650" letter-spacing="-2">Story Lane</text><text x="183" y="146" fill="#8ddaaf" font-family="Arial, sans-serif" font-size="9" letter-spacing="1.35">STORIES MADE FOR THE SCREEN</text><path d="M22 217h546" stroke="#35483e"/><g transform="translate(24 230) scale(.1875)"><path d="M39 23H13v26m76-26h26v26M13 79v26h26m50 0h26V79" fill="none" stroke="#8ddaaf" stroke-width="6"/><path d="M29 42h29v28L44 86H31l13-17H29ZM70 42h29v28L85 86H72l13-17H70Z" fill="#f2f0e5"/><path d="M45 98h38" stroke="#8ddaaf" stroke-width="3"/></g><g transform="translate(68 225) scale(.25)"><path d="M39 23H13v26m76-26h26v26M13 79v26h26m50 0h26V79" fill="none" stroke="#8ddaaf" stroke-width="6"/><path d="M29 42h29v28L44 86H31l13-17H29ZM70 42h29v28L85 86H72l13-17H70Z" fill="#f2f0e5"/><path d="M45 98h38" stroke="#8ddaaf" stroke-width="3"/></g><g transform="translate(119 221) scale(.3125)"><path d="M39 23H13v26m76-26h26v26M13 79v26h26m50 0h26V79" fill="none" stroke="#8ddaaf" stroke-width="6"/><path d="M29 42h29v28L44 86H31l13-17H29ZM70 42h29v28L85 86H72l13-17H70Z" fill="#f2f0e5"/><path d="M45 98h38" stroke="#8ddaaf" stroke-width="3"/></g><text x="175" y="245" fill="#a7b6ad" font-family="Arial, sans-serif" font-size="11">24 / 32 / 40 px</text><g transform="translate(522 221) scale(.3125)"><path d="M39 23H13v26m76-26h26v26M13 79v26h26m50 0h26V79" fill="none" stroke="#f2f0e5" stroke-width="6"/><path d="M29 42h29v28L44 86H31l13-17H29ZM70 42h29v28L85 86H72l13-17H70Z" fill="#f2f0e5"/><path d="M45 98h38" stroke="#f2f0e5" stroke-width="3"/></g></g><g transform="translate(30 722)"><text y="0" fill="#f2f0e5" font-family="Arial, sans-serif" font-size="16" font-weight="600">09 / Scene Exchange</text><text x="590" y="0" text-anchor="end" fill="#9bada4" font-family="Arial, sans-serif" font-size="10">01 + 04 · the two ideas combined</text><rect y="18" width="590" height="251" rx="17" fill="#172622" stroke="#35483e"/><g transform="translate(19 56) scale(1.05)"><path d="M75 29h15c30 0 30 40 0 40H39c-24 0-24 28 0 28h14" fill="none" stroke="#e8b872" stroke-width="6" stroke-linecap="round"/><path d="M11 13h67v32H48L35 57V45H11Z" fill="#f2f0e5"/><path d="M48 78h69v32H87l-13 12v-12H48Z" fill="#8ddaaf"/><path d="M30 23h25M21 34h46M68 89h25M59 100h47" stroke="#172622" stroke-width="3"/></g><text x="180" y="119" fill="#f2f0e5" font-family="Arial, sans-serif" font-size="46" font-weight="650" letter-spacing="-2">Story Lane</text><text x="183" y="146" fill="#e8b872" font-family="Arial, sans-serif" font-size="9" letter-spacing="1.35">STORIES MADE FOR THE SCREEN</text><path d="M22 217h546" stroke="#35483e"/><g transform="translate(24 230) scale(.1875)"><path d="M75 29h15c30 0 30 40 0 40H39c-24 0-24 28 0 28h14" fill="none" stroke="#e8b872" stroke-width="6" stroke-linecap="round"/><path d="M11 13h67v32H48L35 57V45H11Z" fill="#f2f0e5"/><path d="M48 78h69v32H87l-13 12v-12H48Z" fill="#8ddaaf"/><path d="M30 23h25M21 34h46M68 89h25M59 100h47" stroke="#172622" stroke-width="3"/></g><g transform="translate(68 225) scale(.25)"><path d="M75 29h15c30 0 30 40 0 40H39c-24 0-24 28 0 28h14" fill="none" stroke="#e8b872" stroke-width="6" stroke-linecap="round"/><path d="M11 13h67v32H48L35 57V45H11Z" fill="#f2f0e5"/><path d="M48 78h69v32H87l-13 12v-12H48Z" fill="#8ddaaf"/><path d="M30 23h25M21 34h46M68 89h25M59 100h47" stroke="#172622" stroke-width="3"/></g><g transform="translate(119 221) scale(.3125)"><path d="M75 29h15c30 0 30 40 0 40H39c-24 0-24 28 0 28h14" fill="none" stroke="#e8b872" stroke-width="6" stroke-linecap="round"/><path d="M11 13h67v32H48L35 57V45H11Z" fill="#f2f0e5"/><path d="M48 78h69v32H87l-13 12v-12H48Z" fill="#8ddaaf"/><path d="M30 23h25M21 34h46M68 89h25M59 100h47" stroke="#172622" stroke-width="3"/></g><text x="175" y="245" fill="#a7b6ad" font-family="Arial, sans-serif" font-size="11">24 / 32 / 40 px</text><g transform="translate(522 221) scale(.3125)"><path d="M75 29h15c30 0 30 40 0 40H39c-24 0-24 28 0 28h14" fill="none" stroke="#f2f0e5" stroke-width="6" stroke-linecap="round"/><path d="M11 13h67v32H48L35 57V45H11Z" fill="#f2f0e5"/><path d="M48 78h69v32H87l-13 12v-12H48Z" fill="#f2f0e5"/><path d="M30 23h25M21 34h46M68 89h25M59 100h47" stroke="#172622" stroke-width="3"/></g></g><g transform="translate(650 722)"><text y="0" fill="#f2f0e5" font-family="Arial, sans-serif" font-size="16" font-weight="600">10 / Frame &amp; Flow</text><text x="590" y="0" text-anchor="end" fill="#9bada4" font-family="Arial, sans-serif" font-size="10">01 + 04 · one cohesive screen mark</text><rect y="18" width="590" height="251" rx="17" fill="#172622" stroke="#35483e"/><g transform="translate(19 56) scale(1.05)"><path d="M22 20h84a9 9 0 0 1 9 9v62a9 9 0 0 1-9 9H71l-20 17v-17H22a9 9 0 0 1-9-9V29a9 9 0 0 1 9-9Z" fill="none" stroke="#f2f0e5" stroke-width="6" stroke-linejoin="round"/><path d="M53 41h27c19 0 19 36 0 36H55" fill="none" stroke="#e8b872" stroke-width="5" stroke-linecap="round"/><rect x="26" y="33" width="34" height="18" rx="3" fill="#8ddaaf"/><rect x="52" y="68" width="43" height="18" rx="3" fill="#8ddaaf"/><path d="M34 42h18M60 77h27" stroke="#172622" stroke-width="3"/></g><text x="180" y="119" fill="#f2f0e5" font-family="Arial, sans-serif" font-size="46" font-weight="650" letter-spacing="-2">Story Lane</text><text x="183" y="146" fill="#8ddaaf" font-family="Arial, sans-serif" font-size="9" letter-spacing="1.35">STORIES MADE FOR THE SCREEN</text><path d="M22 217h546" stroke="#35483e"/><g transform="translate(24 230) scale(.1875)"><path d="M22 20h84a9 9 0 0 1 9 9v62a9 9 0 0 1-9 9H71l-20 17v-17H22a9 9 0 0 1-9-9V29a9 9 0 0 1 9-9Z" fill="none" stroke="#f2f0e5" stroke-width="6" stroke-linejoin="round"/><path d="M53 41h27c19 0 19 36 0 36H55" fill="none" stroke="#e8b872" stroke-width="5" stroke-linecap="round"/><rect x="26" y="33" width="34" height="18" rx="3" fill="#8ddaaf"/><rect x="52" y="68" width="43" height="18" rx="3" fill="#8ddaaf"/><path d="M34 42h18M60 77h27" stroke="#172622" stroke-width="3"/></g><g transform="translate(68 225) scale(.25)"><path d="M22 20h84a9 9 0 0 1 9 9v62a9 9 0 0 1-9 9H71l-20 17v-17H22a9 9 0 0 1-9-9V29a9 9 0 0 1 9-9Z" fill="none" stroke="#f2f0e5" stroke-width="6" stroke-linejoin="round"/><path d="M53 41h27c19 0 19 36 0 36H55" fill="none" stroke="#e8b872" stroke-width="5" stroke-linecap="round"/><rect x="26" y="33" width="34" height="18" rx="3" fill="#8ddaaf"/><rect x="52" y="68" width="43" height="18" rx="3" fill="#8ddaaf"/><path d="M34 42h18M60 77h27" stroke="#172622" stroke-width="3"/></g><g transform="translate(119 221) scale(.3125)"><path d="M22 20h84a9 9 0 0 1 9 9v62a9 9 0 0 1-9 9H71l-20 17v-17H22a9 9 0 0 1-9-9V29a9 9 0 0 1 9-9Z" fill="none" stroke="#f2f0e5" stroke-width="6" stroke-linejoin="round"/><path d="M53 41h27c19 0 19 36 0 36H55" fill="none" stroke="#e8b872" stroke-width="5" stroke-linecap="round"/><rect x="26" y="33" width="34" height="18" rx="3" fill="#8ddaaf"/><rect x="52" y="68" width="43" height="18" rx="3" fill="#8ddaaf"/><path d="M34 42h18M60 77h27" stroke="#172622" stroke-width="3"/></g><text x="175" y="245" fill="#a7b6ad" font-family="Arial, sans-serif" font-size="11">24 / 32 / 40 px</text><g transform="translate(522 221) scale(.3125)"><path d="M22 20h84a9 9 0 0 1 9 9v62a9 9 0 0 1-9 9H71l-20 17v-17H22a9 9 0 0 1-9-9V29a9 9 0 0 1 9-9Z" fill="none" stroke="#f2f0e5" stroke-width="6" stroke-linejoin="round"/><path d="M53 41h27c19 0 19 36 0 36H55" fill="none" stroke="#f2f0e5" stroke-width="5" stroke-linecap="round"/><rect x="26" y="33" width="34" height="18" rx="3" fill="#f2f0e5"/><rect x="52" y="68" width="43" height="18" rx="3" fill="#f2f0e5"/><path d="M34 42h18M60 77h27" stroke="#172622" stroke-width="3"/></g></g></svg>