<svg xmlns="http://www.w3.org/2000/svg" width="128" height="128" viewBox="0 0 128 128" role="img" aria-labelledby="title desc"><title id="title">Story Lane — SL / Take One</title><desc id="desc">A custom SL monogram built into a production slate. Bold, compact, and immediately connected to film and television.</desc><rect width="128" height="128" rx="24" fill="#f3eee6"/><path d="M16 41h96v62a10 10 0 0 1-10 10H26a10 10 0 0 1-10-10Z" fill="#202022"/>
    <path d="m16 29 90-18 6 25-96 19Z" fill="#eb523b"/>
    <path d="m27 27 13-3 12 22-13 3Zm32-6 13-3 12 22-13 3Zm32-6 13-3 7 14-12 3Z" fill="#f3eee6"/>
    <path d="M60 65H43a7 7 0 0 0 0 14h8a7 7 0 0 1 0 14H33M77 61v32h19" fill="none" stroke="#f3eee6" stroke-width="8" stroke-linecap="square" stroke-linejoin="round"/>
    <circle cx="24" cy="47" r="3" fill="#f3eee6"/></svg>